<svg width="273" height="24" viewBox="0 0 273 24" fill="none" xmlns="http://www.w3.org/2000/svg">
<path d="M3 3C16.3547 3 16.3547 21 29.7094 21C43.0641 21 43.0641 3 56.4188 3C69.7735 3 69.7735 21 83.0969 21C96.452 21 96.452 3 109.775 3C123.13 3 123.13 21 136.453 21C149.808 21 149.808 3 163.162 3C176.517 3 176.517 21 189.872 21C203.226 21 203.226 3 216.581 3C229.936 3 229.936 21 243.291 21C256.645 21 256.645 3 270 3" stroke="#611CF4" stroke-width="6" stroke-miterlimit="10" stroke-linecap="round"/>
</svg>
